# xmcd
#
# Track frame offsets:
#	150
#	55863
#	98165
#	133696
#	146185
#	177663
#	221813
#	266309
#	295767
#
# Disc length: 4252 seconds
#
# Revision: 1
# Processed by: cddbd v1.5.2PL0 Copyright (c) Steve Scherf et al.
# Submitted via: audiograbber 1.83.01
#
DISCID=90109a09
DTITLE=Grateful Dead - 82-02-21 Pauley Pavilion, UCLA, Los Angeles CA
DYEAR=1900
DGENRE=
TTITLE0=Shakedown Street
TTITLE1=Minglewood Blues
TTITLE2=Friend Of The Devil
TTITLE3=Me and My Uncle
TTITLE4=Big River
TTITLE5=Bird Song
TTITLE6=Little Red Rooster
TTITLE7=Bertha
TTITLE8=Men Smart, Women Smarter
EXTD=
EXTT0=
EXTT1=
EXTT2=
EXTT3=
EXTT4=
EXTT5=
EXTT6=
EXTT7=
EXTT8=
PLAYORDER=
